<svg xmlns="http://www.w3.org/2000/svg" width="1054" height="572" viewBox="0 0 1054 572" version="1.1"><path d="M 133.045 174.092 C 122.575 176.145, 112.238 183.619, 106.627 193.194 C 105.168 195.682, 103.023 201.482, 101.860 206.081 C 96.849 225.899, 103.800 248.660, 117.836 258.386 C 126.959 264.709, 130.155 265.305, 158.500 265.967 C 187.786 266.651, 189.320 266.982, 196.692 274.199 C 204 281.353, 207.765 294.202, 206.552 307.848 C 205.708 317.346, 207.238 320.270, 212.810 319.807 C 218.177 319.361, 219.996 315.249, 219.998 303.564 C 220.001 286.685, 214.693 272.634, 204.880 263.549 C 195.058 254.456, 192.111 253.737, 161.500 252.961 C 144.033 252.519, 134.261 251.867, 131.725 250.976 C 118.862 246.455, 110.868 229.139, 113.875 212.312 C 116.050 200.143, 123.158 190.998, 132.888 187.849 C 135.222 187.094, 148.177 186.531, 169.500 186.260 C 206.047 185.795, 206 185.804, 206 179.402 C 206 173.093, 205.387 172.987, 169.527 173.110 C 151.912 173.170, 135.495 173.612, 133.045 174.092 M 236.655 174.829 C 235.152 176.490, 235 182.482, 235 240.280 C 235 283.798, 235.357 305.576, 236.130 309.201 C 239.991 327.296, 254.647 343.334, 273.568 350.165 C 281.862 353.160, 300.020 353.869, 310.161 351.594 C 319.868 349.417, 333.149 342.362, 334.437 338.699 C 335.757 334.946, 334.091 330.756, 330.822 329.606 C 328.630 328.835, 327.327 329.224, 323.188 331.879 C 314.202 337.646, 307.804 339.395, 295.500 339.450 C 286.515 339.491, 283.309 339.081, 278 337.213 C 265.668 332.875, 255.334 323.319, 250.735 312 C 248.520 306.550, 248.495 305.910, 248 241.169 C 247.516 177.957, 247.437 175.791, 245.559 174.419 C 242.866 172.451, 238.631 172.646, 236.655 174.829 M 343.647 174.838 C 342.130 176.514, 342.006 181.693, 342.242 233.550 L 342.500 290.424 345.069 291.866 C 348.594 293.844, 352.470 292.693, 353.898 289.245 C 354.732 287.233, 354.974 271.171, 354.775 231.151 C 354.509 177.719, 354.434 175.790, 352.559 174.419 C 349.862 172.448, 345.630 172.647, 343.647 174.838 M 372.073 175.635 C 370.013 178.253, 370 178.798, 370 262.701 C 370 347.532, 370.095 350.028, 373.400 352.235 C 375.062 353.345, 435.934 353.146, 442.114 352.010 C 449.765 350.604, 464.510 343.018, 471.160 337.066 C 477.559 331.339, 483.267 322.794, 487.573 312.500 L 490.500 305.500 490.500 263.500 C 490.500 221.939, 490.476 221.434, 488.160 215.149 C 479.798 192.459, 460.307 176.458, 437.364 173.447 C 432.938 172.866, 431.935 173.065, 430.114 174.886 C 427.544 177.456, 427.367 182.117, 429.758 184.281 C 430.725 185.156, 434.716 186.540, 438.625 187.355 C 456.061 190.990, 469.116 202.187, 475.231 218.751 C 477.207 224.103, 477.381 226.885, 477.763 259.054 C 478.011 279.872, 477.773 295.774, 477.167 299.054 C 475.521 307.954, 472.307 315.220, 467.256 321.460 C 460.960 329.238, 453.269 334.440, 443.500 337.528 C 435.678 340, 434.922 340.050, 409.500 339.778 L 383.500 339.500 383.244 258.072 C 383.011 184.047, 382.838 176.479, 381.339 174.822 C 378.894 172.121, 374.536 172.503, 372.073 175.635 M 392.073 175.635 C 390.933 177.084, 390 178.823, 390 179.500 C 390 180.177, 390.933 181.916, 392.073 183.365 C 394.051 185.880, 394.575 186, 403.618 186 C 412.406 186, 413.273 185.818, 415.608 183.483 C 418.308 180.783, 418.192 178.127, 415.227 174.750 C 413.960 173.308, 411.973 173, 403.918 173 C 394.551 173, 394.059 173.110, 392.073 175.635 M 579.789 174.750 C 578.952 175.713, 570.048 196.075, 560.003 220 C 549.958 243.925, 533.908 282.110, 524.336 304.855 C 513.211 331.290, 507.148 346.891, 507.531 348.099 C 509.057 352.906, 515.158 354.697, 518.270 351.250 C 519.139 350.287, 522.268 343.875, 525.223 337 L 530.596 324.500 556.764 324 C 585.702 323.447, 586.333 323.298, 586.333 317 C 586.333 310.776, 585.399 310.534, 559.966 310.182 C 547.335 310.008, 537 309.648, 537 309.384 C 537 309.023, 572.092 225.187, 582.786 200 L 584.272 196.500 586.238 201 C 588.828 206.929, 608.379 253.058, 630.940 306.471 C 640.923 330.106, 649.815 350.243, 650.700 351.221 C 652.334 353.027, 656.595 353.573, 658.600 352.235 C 659.205 351.831, 660.251 350.456, 660.923 349.179 C 662.404 346.368, 662.606 346.985, 652.218 322.495 C 647.787 312.048, 638.001 288.875, 630.472 271 C 622.943 253.125, 614.884 234, 612.563 228.500 C 610.241 223, 604.371 209.050, 599.517 197.500 C 594.663 185.950, 590.016 175.713, 589.191 174.750 C 588.344 173.763, 586.300 173, 584.500 173 C 582.708 173, 580.643 173.767, 579.789 174.750 M 678.655 174.829 C 676.458 177.256, 676.550 182.283, 678.829 184.345 C 680.485 185.844, 685.964 186, 736.829 186 C 791.667 186, 793.047 185.953, 795 184 C 796.100 182.900, 797 181.295, 797 180.434 C 797 178.509, 795.088 174.759, 793.600 173.765 C 792.995 173.361, 767.257 173.024, 736.405 173.015 C 683.320 173.001, 680.221 173.098, 678.655 174.829 M 884.249 174.250 C 882.563 176.367, 812 344.852, 812 346.761 C 812 350.244, 814.903 353, 818.571 353 C 822.813 353, 823.994 351.263, 830.608 335.291 L 835.284 324 860.507 324 C 884.511 324, 885.858 323.900, 888.365 321.927 C 891.618 319.369, 891.857 315.087, 888.897 312.405 C 886.984 310.671, 884.770 310.473, 864.302 310.196 L 841.810 309.892 842.397 307.556 C 842.719 306.271, 846.959 295.833, 851.820 284.360 C 856.680 272.887, 863.393 256.975, 866.738 249 C 884.726 206.117, 888.262 198, 888.959 198 C 889.380 198, 891.557 202.387, 893.797 207.750 C 896.038 213.113, 901.974 227.175, 906.988 239 C 912.002 250.825, 921.211 272.650, 927.452 287.500 C 949.018 338.816, 954.170 350.505, 955.773 351.750 C 959.866 354.930, 966 351.931, 966 346.750 C 966 345.324, 962.132 335.009, 957.403 323.828 C 952.675 312.648, 944.623 293.600, 939.510 281.500 C 934.397 269.400, 925.932 249.375, 920.699 237 C 915.466 224.625, 907.622 206.038, 903.269 195.696 C 898.915 185.354, 894.603 176.017, 893.686 174.946 C 891.781 172.721, 885.817 172.281, 884.249 174.250 M 734.310 194.081 C 730.798 195.380, 730 198.231, 730 209.480 C 730 219.413, 730.157 220.248, 732.455 222.545 C 735.355 225.446, 737.965 225.659, 740.954 223.238 C 742.952 221.620, 743.132 220.560, 743.148 210.285 C 743.157 204.130, 742.884 198.211, 742.542 197.131 C 741.767 194.690, 737.218 193.005, 734.310 194.081 M 734.315 236.075 C 733.114 236.522, 731.640 237.804, 731.040 238.925 C 730.282 240.342, 730.034 257.562, 730.225 295.562 C 730.491 348.288, 730.567 350.211, 732.441 351.581 C 735.134 353.549, 739.369 353.354, 741.345 351.171 C 742.843 349.516, 743 344.116, 743 294.326 C 743 243.169, 742.877 239.205, 741.250 237.807 C 738.719 235.634, 736.795 235.153, 734.315 236.075 M 343.749 300.982 C 342.343 302.089, 340.944 304.483, 340.585 306.401 C 340.230 308.291, 338.609 312.461, 336.983 315.669 C 335.356 318.876, 334.020 322.668, 334.013 324.095 C 333.986 329.541, 341.038 331.962, 345.099 327.901 C 348.262 324.738, 352.986 313.911, 353.651 308.301 C 354.191 303.736, 354.016 303.157, 351.485 301.167 C 348.086 298.494, 346.948 298.466, 343.749 300.982 M 598.315 311.007 C 593.687 312.872, 592.801 317.891, 596.455 321.545 C 598.619 323.710, 599.785 324, 606.320 324 C 612.303 324, 614.238 323.601, 616.365 321.927 C 618.986 319.866, 619.843 315.873, 618.214 313.313 C 616.311 310.319, 603.662 308.853, 598.315 311.007 M 903.028 311.062 C 899.955 312.352, 899.035 313.754, 899.015 317.177 C 898.989 321.820, 903.036 324, 911.680 324 C 918.215 324, 919.381 323.710, 921.545 321.545 C 924.489 318.602, 924.656 316.032, 922.109 312.886 C 920.482 310.877, 919.188 310.513, 912.859 310.287 C 908.811 310.142, 904.388 310.491, 903.028 311.062 M 200.293 328.544 C 198.757 330.493, 195.141 333.665, 192.257 335.593 C 186.267 339.597, 184.911 342.689, 187.448 346.561 C 190.636 351.426, 194.046 351.069, 202.089 345.025 C 208.567 340.158, 213.292 333.534, 212.395 330.580 C 210.417 324.066, 204.593 323.087, 200.293 328.544 M 102.635 342.073 C 99.468 344.563, 99.209 348.209, 102 351 C 103.929 352.929, 105.333 353, 141.345 353 C 176.254 353, 178.798 352.881, 180.345 351.171 C 182.772 348.490, 182.474 343.446, 179.777 341.557 C 177.865 340.217, 172.506 340, 141.412 340 C 106.362 340, 105.190 340.063, 102.635 342.073 M 112 372.688 C 108.343 374.084, 107 376.339, 107 381.082 C 107 387.632, 109.942 390, 118.078 390 C 122.947 390, 124.138 390.360, 125.443 392.223 C 126.299 393.445, 127 395.695, 127 397.223 C 127 398.750, 127.450 400, 128 400 C 128.550 400, 129 398.285, 129 396.189 C 129 389.652, 126.531 388.098, 114.033 386.763 C 112.552 386.605, 110.954 385.401, 110.033 383.750 C 108.656 381.279, 108.656 380.721, 110.033 378.250 C 111.443 375.719, 112.162 375.460, 119.033 375 C 123.140 374.725, 126.500 374.050, 126.500 373.500 C 126.500 372.420, 114.468 371.747, 112 372.688 M 156.737 375.100 C 154.018 378.665, 153.256 381, 154.812 381 C 156.265 381, 160.138 374.953, 159.802 373.209 C 159.551 371.909, 158.834 372.351, 156.737 375.100 M 169.639 372.694 C 169.288 373.046, 169 380.683, 169 389.667 L 169 406 177.100 406 C 184.978 406, 185.293 405.907, 188.600 402.600 C 191.971 399.229, 192 399.123, 192 390.050 C 192 379.183, 190.539 375.541, 185.302 373.353 C 180.183 371.214, 178.738 373.220, 183.662 375.630 C 188.521 378.007, 189.967 380.974, 189.985 388.601 C 190.013 400.190, 186.813 404, 177.050 404 L 172 404 172 388.559 C 172 374.512, 171.459 370.875, 169.639 372.694 M 173.222 373.166 C 173.739 374.716, 176.881 374.976, 177.250 373.500 C 177.387 372.950, 176.437 372.350, 175.139 372.166 C 173.520 371.937, 172.917 372.251, 173.222 373.166 M 201 389 C 201 409.774, 202.814 412.427, 203.222 392.250 L 203.500 378.500 207.862 385.250 C 211.960 391.593, 214 393.464, 214 390.881 C 214 389.267, 202.907 372, 201.870 372 C 201.392 372, 201 379.650, 201 389 M 221.683 372.650 C 221.308 373.026, 221 379.066, 221 386.073 C 221 398.320, 220.923 398.793, 219 398.290 C 216.465 397.627, 216.485 398.431, 219.110 402.679 C 222.775 408.608, 223.478 406.623, 223.776 389.494 C 224.030 374.968, 223.514 370.819, 221.683 372.650 M 232.698 372.635 C 232.314 373.019, 232 380.683, 232 389.667 L 232 406 243.500 406 C 250.500 406, 255 405.609, 255 405 C 255 404.400, 251 404, 245 404 L 235 404 235 397.136 L 235 390.272 238.250 390.386 C 240.037 390.449, 241.603 390.050, 241.729 389.500 C 241.856 388.950, 240.393 388.500, 238.479 388.500 L 234.999 388.500 234.999 381.786 L 235 375.072 244.750 374.786 C 250.393 374.621, 254.500 374.079, 254.500 373.500 C 254.500 372.360, 233.795 371.538, 232.698 372.635 M 282.804 374.199 C 279.517 379.266, 278.855 381.001, 280.215 380.988 C 282.080 380.970, 286.381 373.981, 285.233 372.833 C 284.652 372.252, 283.732 372.769, 282.804 374.199 M 317.605 373.588 C 316.612 376.175, 316.931 394.211, 318.040 398.205 C 319.496 403.448, 323.140 406, 329.169 406 C 333.306 406, 334.529 405.528, 337.034 402.966 C 340.154 399.773, 341.435 394.564, 338.500 397 C 337.675 397.685, 337 398.999, 337 399.922 C 337 401.574, 332.079 404, 328.726 404 C 325.474 404, 322.077 401.660, 321.050 398.713 C 320.472 397.057, 320 390.620, 320 384.410 C 320 373.963, 319.071 369.766, 317.605 373.588 M 338.683 372.650 C 338.308 373.026, 338 378.246, 338 384.250 C 338 392.538, 338.301 395.067, 339.250 394.752 C 340.117 394.465, 340.588 391.170, 340.787 384.006 C 341.052 374.467, 340.398 370.936, 338.683 372.650 M 349.690 372.643 C 349.311 373.023, 349 380.721, 349 389.750 C 349 402.438, 349.284 406.073, 350.250 405.752 C 351.129 405.461, 351.648 401.476, 352 392.322 L 352.500 379.307 356.485 385.653 C 358.677 389.144, 361.039 392, 361.735 392 C 363.615 392, 363.445 391.596, 357.835 382.695 C 351.844 373.190, 350.635 371.698, 349.690 372.643 M 369.639 372.694 C 369.288 373.046, 369 379.066, 369 386.073 C 369 398.620, 368.967 398.804, 366.848 398.250 L 364.696 397.687 367.032 401.844 C 371.305 409.446, 372 407.728, 372 389.559 C 372 374.611, 371.475 370.859, 369.639 372.694 M 380.627 374.261 C 379.338 379.072, 380.281 385.563, 382.105 384.435 C 383.266 383.718, 383.274 373.287, 382.114 372.570 C 381.626 372.269, 380.957 373.030, 380.627 374.261 M 391.987 373.050 C 391.957 376.528, 397.403 392, 398.658 392 C 400.357 392, 400.488 392.782, 397.063 382.523 C 394.220 374.008, 392.015 369.892, 391.987 373.050 M 412.635 372.802 C 412.185 373.518, 409.897 379.818, 407.550 386.802 C 404.176 396.844, 402.933 399.437, 401.610 399.199 C 400.251 398.954, 400.061 399.425, 400.597 401.699 C 401.431 405.232, 402.717 406.719, 403.841 405.450 C 405.260 403.849, 414.154 375.033, 413.792 373.210 C 413.532 371.900, 413.262 371.804, 412.635 372.802 M 423 389 L 423 406 434.559 406 C 442.010 406, 445.898 405.645, 445.500 405 C 445.159 404.448, 440.663 404, 435.460 404 C 424.765 404, 424.549 403.809, 425.184 394.920 L 425.500 390.500 429.250 390.827 C 432.078 391.073, 433 390.780, 433 389.637 C 433 388.607, 431.798 388.021, 429.250 387.810 L 425.500 387.500 425.500 381.500 L 425.500 375.500 433.500 375.248 C 442.913 374.952, 446.308 374.307, 445.482 372.971 C 445.152 372.437, 439.959 372, 433.941 372 L 423 372 423 389 M 454.667 372.667 C 454.300 373.033, 454 380.683, 454 389.667 C 454 403.309, 454.240 406, 455.458 406 C 456.585 406, 456.982 404.239, 457.208 398.250 L 457.500 390.500 462.005 390.205 L 466.510 389.910 470.488 397.540 C 472.676 401.736, 474.841 405.402, 475.299 405.685 C 477.571 407.089, 476.834 404.329, 472.874 396.594 L 468.517 388.085 463.008 387.793 L 457.500 387.500 457.202 381.250 L 456.905 375 463.761 375 C 472.214 375, 474.117 376.206, 474.399 381.740 C 474.565 384.987, 474.224 385.970, 472.805 386.341 C 470.692 386.893, 470.359 389, 472.385 389 C 473.147 389, 474.497 387.891, 475.385 386.535 C 478.575 381.667, 476.702 374.789, 471.713 373.050 C 468.395 371.893, 455.725 371.609, 454.667 372.667 M 490.315 372.986 C 485.430 375.002, 484.351 383.442, 488.455 387.545 C 490.514 389.605, 491.873 390, 496.898 390 C 501.953 390, 503.129 390.347, 504.443 392.223 C 505.299 393.445, 506 395.695, 506 397.223 C 506 400.160, 507.678 401.003, 508.623 398.541 C 509.339 396.675, 507.323 390.513, 505.503 389.003 C 504.736 388.366, 501.052 387.543, 497.316 387.173 C 491.194 386.566, 490.393 386.229, 489.207 383.750 C 488.120 381.479, 488.119 380.521, 489.204 378.250 C 490.425 375.691, 491.038 375.465, 498.008 375 C 502.129 374.725, 505.500 374.050, 505.500 373.500 C 505.500 372.216, 493.192 371.799, 490.315 372.986 M 517.473 373.210 C 516.552 375.611, 517.380 384.528, 518.500 384.263 C 519.861 383.941, 520.369 373.969, 519.090 372.690 C 518.391 371.991, 517.877 372.156, 517.473 373.210 M 528.516 372.974 C 528.163 373.546, 528.496 374.253, 529.258 374.545 C 531.695 375.481, 550.500 374.555, 550.500 373.500 C 550.500 372.119, 529.357 371.613, 528.516 372.974 M 559.605 372.830 C 559.323 373.286, 561.209 376.773, 563.796 380.580 C 568.354 387.285, 568.516 387.777, 569 396.421 C 569.329 402.293, 569.927 405.483, 570.750 405.754 C 571.689 406.064, 572 403.897, 572 397.051 L 572 387.936 566.417 379.968 C 563.346 375.586, 560.673 372, 560.476 372 C 560.279 372, 559.887 372.373, 559.605 372.830 M 577.602 375.635 C 576.171 377.741, 575 379.810, 575 380.232 C 575 382.016, 577.082 380.759, 579.603 377.454 C 581.494 374.974, 581.992 373.592, 581.256 372.856 C 580.521 372.121, 579.422 372.956, 577.602 375.635 M 613.466 373.229 C 613.180 373.974, 613.070 381.540, 613.223 390.042 L 613.500 405.500 620.423 405.800 C 633.337 406.359, 636 403.447, 636 388.772 C 636 381.768, 635.594 378.865, 634.369 377.117 C 632.319 374.189, 626.140 371.460, 624.737 372.863 C 624.070 373.530, 624.921 374.358, 627.291 375.348 C 633.023 377.743, 634.264 380.598, 633.853 390.455 C 633.394 401.494, 631.931 403.219, 622.521 403.818 L 616 404.233 616 388.676 C 616 379.310, 615.599 372.870, 614.993 372.496 C 614.439 372.153, 613.752 372.483, 613.466 373.229 M 617.565 372.895 C 616.901 373.970, 619.798 375.243, 621.090 374.444 C 621.591 374.135, 622 373.459, 622 372.941 C 622 371.743, 618.301 371.704, 617.565 372.895 M 658.646 372.763 C 657.874 374.013, 645 404.931, 645 405.536 C 645 407.008, 647.682 405.644, 648.513 403.750 C 649.329 401.890, 650.420 401.447, 654.815 401.195 C 661.271 400.826, 661.468 398.655, 655.089 398.188 C 652.284 397.983, 651 397.472, 651.321 396.688 C 656.377 384.374, 659.336 378.089, 659.910 378.444 C 660.301 378.686, 663.231 384.985, 666.420 392.442 C 671.527 404.381, 674 408.452, 674 404.918 C 674 403.120, 661.895 374.602, 660.518 373.154 C 659.767 372.365, 658.992 372.203, 658.646 372.763 M 683.694 372.639 C 682.025 374.308, 684.892 375, 693.477 375 C 703.166 375, 706.386 374.433, 705.435 372.895 C 704.811 371.885, 684.685 371.649, 683.694 372.639 M 778.794 373.549 C 773.810 376.254, 773.996 386.142, 779.079 388.735 C 780.411 389.415, 783.793 389.977, 786.595 389.985 C 792.606 390.003, 795 391.975, 795 396.912 C 795 399.082, 795.417 400.021, 796.250 399.730 C 798.296 399.014, 797.535 392.090, 795.148 389.704 C 793.550 388.106, 791.445 387.496, 786.421 387.176 C 780.116 386.774, 779.738 386.606, 778.491 383.641 C 777.537 381.372, 777.469 379.982, 778.241 378.514 C 779.867 375.420, 780.978 375.032, 788.250 375.015 C 793.577 375.003, 795 374.684, 795 373.500 C 795 371.445, 782.601 371.483, 778.794 373.549 M 813.270 373.483 C 808.010 375.769, 806.007 380.186, 806.007 389.500 C 806.007 398.509, 808.032 403.301, 812.566 405.025 C 815.893 406.290, 820 406.276, 820 405 C 820 404.450, 818.840 404, 817.423 404 C 815.908 404, 813.641 402.795, 811.923 401.077 C 809.143 398.297, 809 397.731, 809 389.500 C 809 381.269, 809.143 380.703, 811.923 377.923 C 815.758 374.088, 821.576 373.872, 825.694 377.412 C 828.363 379.705, 828.509 380.280, 828.692 389.142 C 828.969 402.649, 831.956 402.052, 831.986 388.484 C 832.003 381.153, 829.711 376.387, 824.938 373.827 C 820.903 371.663, 817.674 371.568, 813.270 373.483 M 846.449 373.551 C 841.562 375.963, 840 379.666, 840 388.839 C 840 396.625, 841.120 402, 842.741 402 C 843.176 402, 843.363 397.078, 843.157 391.063 C 842.793 380.426, 842.853 380.056, 845.346 377.563 C 848.605 374.304, 854.863 374.054, 859.025 377.018 C 862.107 379.212, 863.571 378.501, 861.580 375.778 C 858.854 372.051, 851.641 370.989, 846.449 373.551 M 872 381.441 C 872 386.698, 872.408 391, 872.906 391 C 874.157 391, 874.249 373.272, 873.002 372.501 C 872.359 372.104, 872 375.312, 872 381.441 M 883 389 L 883 406 894 406 C 900.667 406, 905 405.606, 905 405 C 905 404.400, 901 404, 895 404 L 885 404 885 397.224 L 885 390.447 889 390.829 C 892.256 391.139, 893 390.892, 893 389.500 C 893 388.108, 892.256 387.861, 889 388.171 L 885 388.553 885 381.776 L 885 375 893.918 375 C 903.192 375, 906.376 374.418, 905.435 372.895 C 905.131 372.403, 899.959 372, 893.941 372 L 883 372 883 389 M 914.247 373.250 C 914.693 374.595, 930.565 375.572, 934.791 374.515 C 939.985 373.215, 935.187 372, 924.858 372 C 916.484 372, 913.933 372.301, 914.247 373.250 M 945.496 373.007 C 945.153 373.561, 947.152 377.248, 949.937 381.200 L 955 388.387 955 397.194 C 955 404.355, 955.280 406, 956.500 406 C 957.732 406, 958 404.234, 958 396.107 C 958 388.236, 958.307 386.096, 959.500 385.638 C 960.325 385.322, 961 384.374, 961 383.531 C 961 381.558, 960.106 381.595, 957.823 383.661 C 956.813 384.574, 955.835 385.136, 955.649 384.911 C 955.462 384.685, 953.423 381.688, 951.118 378.250 C 946.672 371.623, 946.469 371.433, 945.496 373.007 M 139.117 375.250 C 139.770 376.488, 142.035 380.063, 144.152 383.195 C 147.880 388.712, 148 389.161, 148 397.528 C 148 403.993, 148.315 406.063, 149.250 405.753 C 150.081 405.478, 150.597 402.597, 150.791 397.164 L 151.081 388.989 145.874 380.994 C 143.010 376.597, 140.051 373, 139.298 373 C 138.194 373, 138.159 373.434, 139.117 375.250 M 264 373.679 C 264 374.144, 266.250 377.844, 269 381.901 L 274 389.277 274 397.638 C 274 402.546, 274.413 406, 275 406 C 275.595 406, 276 402.228, 276 396.685 L 276 387.370 271.250 380.502 C 266.924 374.247, 264 371.495, 264 373.679 M 727.046 374.915 C 725.898 377.060, 714 405.084, 714 405.643 C 714 405.839, 714.603 406, 715.339 406 C 716.076 406, 717.192 404.875, 717.818 403.500 C 718.817 401.309, 719.587 401, 724.062 401 C 730.320 401, 730.469 398.760, 724.261 398 L 720.178 397.500 724.292 387.750 C 726.555 382.387, 728.662 378, 728.974 378 C 729.286 378, 732.175 384.300, 735.394 392 C 739.190 401.082, 741.767 406, 742.730 406 C 743.546 406, 743.987 405.438, 743.709 404.750 C 743.431 404.063, 740.458 397.055, 737.102 389.178 C 733.746 381.301, 731 374.438, 731 373.928 C 731 372.239, 728.089 372.966, 727.046 374.915 M 963.188 375.960 C 961.985 377.587, 961 379.387, 961 379.960 C 961 381.894, 962.853 381.016, 964.932 378.096 C 968.652 372.872, 966.983 370.827, 963.188 375.960 M 538.386 377.437 C 537.650 379.354, 538.568 382, 539.969 382 C 541.297 382, 541.318 377.315, 539.993 376.496 C 539.439 376.153, 538.716 376.577, 538.386 377.437 M 693 379 C 693 382.161, 694.386 383.041, 695.362 380.500 C 696.045 378.720, 695.157 376, 693.893 376 C 693.402 376, 693 377.350, 693 379 M 924.695 376.639 C 923.683 377.651, 923.843 382, 924.893 382 C 926.258 382, 927.104 379.008, 926.196 377.386 C 925.752 376.593, 925.077 376.257, 924.695 376.639 M 151.200 383.200 C 149.567 384.833, 149.692 386, 151.500 386 C 152.325 386, 153 385.812, 153 385.582 C 153 385.352, 153.273 384.452, 153.607 383.582 C 154.323 381.715, 152.909 381.491, 151.200 383.200 M 276.583 383.643 C 276.237 384.547, 276.178 385.511, 276.452 385.786 C 277.091 386.424, 280 384.039, 280 382.878 C 280 381.325, 277.235 381.944, 276.583 383.643 M 572.070 383.869 C 571.520 384.896, 571.351 386.017, 571.693 386.360 C 572.567 387.234, 575 385.039, 575 383.378 C 575 381.389, 573.239 381.685, 572.070 383.869 M 538.639 384.694 C 538.288 385.046, 538 389.983, 538 395.667 C 538 404.185, 538.263 406, 539.500 406 C 540.738 406, 541 404.173, 541 395.559 C 541 386.006, 540.344 382.989, 538.639 384.694 M 693 395.083 C 693 403.504, 693.300 406.067, 694.250 405.753 C 695.085 405.476, 695.598 402.545, 695.795 396.920 C 696.110 387.920, 695.560 384, 693.981 384 C 693.399 384, 693 388.505, 693 395.083 M 924.695 384.639 C 924.313 385.021, 924 390.021, 924 395.750 C 924 403.638, 924.303 406.066, 925.250 405.752 C 926.100 405.471, 926.592 402.397, 926.788 396.148 C 927.059 387.478, 926.258 383.075, 924.695 384.639 M 517.166 388.139 C 517.350 389.437, 517.950 390.387, 518.500 390.250 C 519.976 389.881, 519.716 386.739, 518.166 386.222 C 517.251 385.917, 516.937 386.520, 517.166 388.139 M 380.888 393.691 C 380.227 404.418, 380.384 406, 382.107 406 C 383.340 406, 383.239 393.266, 382 392.500 C 381.450 392.160, 380.950 392.696, 380.888 393.691 M 517.683 392.650 C 517.308 393.026, 517 396.221, 517 399.750 C 517 404.437, 517.337 406.055, 518.250 405.754 C 519.009 405.504, 519.620 403.057, 519.804 399.525 C 520.092 394.025, 519.200 391.133, 517.683 392.650 M 872 399 C 872 403, 872.429 406, 873 406 C 873.571 406, 874 403, 874 399 C 874 395, 873.571 392, 873 392 C 872.429 392, 872 395, 872 399 M 398 394.378 C 398 395.135, 398.675 396.315, 399.500 397 C 400.768 398.053, 401 397.840, 401 395.622 C 401 393.958, 400.452 393, 399.500 393 C 398.675 393, 398 393.620, 398 394.378 M 662 399.500 C 662 400.333, 662.889 401, 664 401 C 665.111 401, 666 400.333, 666 399.500 C 666 398.667, 665.111 398, 664 398 C 662.889 398, 662 398.667, 662 399.500 M 731.667 398.667 C 730.399 399.934, 731.008 401, 733 401 C 734.111 401, 735 400.333, 735 399.500 C 735 397.978, 732.885 397.449, 731.667 398.667 M 858.139 402.033 C 856.841 403.115, 854.703 404, 853.389 404 C 852.075 404, 851 404.450, 851 405 C 851 406.815, 857.664 406.052, 860.365 403.927 C 861.814 402.788, 863 401.438, 863 400.927 C 863 399.402, 860.658 399.935, 858.139 402.033 M 124.569 402.924 C 123.634 403.957, 123.289 405.061, 123.801 405.377 C 124.314 405.694, 125.497 405.108, 126.431 404.076 C 127.366 403.043, 127.711 401.939, 127.199 401.623 C 126.686 401.306, 125.503 401.892, 124.569 402.924 M 503.772 402.657 C 502.479 403.950, 500.414 404.254, 494.065 404.086 C 488.676 403.944, 486 404.243, 486 404.987 C 486 406.604, 503.463 406.117, 505.738 404.436 C 506.965 403.530, 507.184 402.813, 506.457 402.074 C 505.724 401.330, 504.926 401.503, 503.772 402.657 M 793.200 402.200 C 792.540 402.860, 792 404.001, 792 404.735 C 792 405.760, 792.464 405.822, 794 405 C 795.100 404.411, 796 403.270, 796 402.465 C 796 400.689, 794.823 400.577, 793.200 402.200 M 824 403.032 C 821.715 404.790, 821.672 404.956, 823.500 404.962 C 826.391 404.972, 828.709 403.308, 827.492 402.096 C 826.838 401.445, 825.647 401.764, 824 403.032 M 107 405 C 107 405.578, 110.167 406, 114.500 406 C 118.833 406, 122 405.578, 122 405 C 122 404.422, 118.833 404, 114.500 404 C 110.167 404, 107 404.422, 107 405 M 775 405 C 775 405.583, 778.333 406, 783 406 C 787.667 406, 791 405.583, 791 405 C 791 404.417, 787.667 404, 783 404 C 778.333 404, 775 404.417, 775 405" stroke="none" fill="#e8eff5" fill-rule="evenodd"/><path d="M -0 286.001 L -0 572.002 527.250 571.751 L 1054.500 571.500 1054.752 285.750 L 1055.003 0 527.502 0 L 0 0 -0 286.001 M 0.493 286.500 C 0.493 443.800, 0.609 508.001, 0.750 429.169 C 0.891 350.337, 0.891 221.637, 0.750 143.169 C 0.609 64.701, 0.493 129.200, 0.493 286.500 M 133.045 174.092 C 122.575 176.145, 112.238 183.619, 106.627 193.194 C 105.168 195.682, 103.023 201.482, 101.860 206.081 C 96.849 225.899, 103.800 248.660, 117.836 258.386 C 126.959 264.709, 130.155 265.305, 158.500 265.967 C 187.786 266.651, 189.320 266.982, 196.692 274.199 C 204 281.353, 207.765 294.202, 206.552 307.848 C 205.708 317.346, 207.238 320.270, 212.810 319.807 C 218.177 319.361, 219.996 315.249, 219.998 303.564 C 220.001 286.685, 214.693 272.634, 204.880 263.549 C 195.058 254.456, 192.111 253.737, 161.500 252.961 C 144.033 252.519, 134.261 251.867, 131.725 250.976 C 118.862 246.455, 110.868 229.139, 113.875 212.312 C 116.050 200.143, 123.158 190.998, 132.888 187.849 C 135.222 187.094, 148.177 186.531, 169.500 186.260 C 206.047 185.795, 206 185.804, 206 179.402 C 206 173.093, 205.387 172.987, 169.527 173.110 C 151.912 173.170, 135.495 173.612, 133.045 174.092 M 236.655 174.829 C 235.152 176.490, 235 182.482, 235 240.280 C 235 283.798, 235.357 305.576, 236.130 309.201 C 239.991 327.296, 254.647 343.334, 273.568 350.165 C 281.862 353.160, 300.020 353.869, 310.161 351.594 C 319.868 349.417, 333.149 342.362, 334.437 338.699 C 335.757 334.946, 334.091 330.756, 330.822 329.606 C 328.630 328.835, 327.327 329.224, 323.188 331.879 C 314.202 337.646, 307.804 339.395, 295.500 339.450 C 286.515 339.491, 283.309 339.081, 278 337.213 C 265.668 332.875, 255.334 323.319, 250.735 312 C 248.520 306.550, 248.495 305.910, 248 241.169 C 247.516 177.957, 247.437 175.791, 245.559 174.419 C 242.866 172.451, 238.631 172.646, 236.655 174.829 M 343.647 174.838 C 342.130 176.514, 342.006 181.693, 342.242 233.550 L 342.500 290.424 345.069 291.866 C 348.594 293.844, 352.470 292.693, 353.898 289.245 C 354.732 287.233, 354.974 271.171, 354.775 231.151 C 354.509 177.719, 354.434 175.790, 352.559 174.419 C 349.862 172.448, 345.630 172.647, 343.647 174.838 M 372.073 175.635 C 370.013 178.253, 370 178.798, 370 262.701 C 370 347.532, 370.095 350.028, 373.400 352.235 C 375.062 353.345, 435.934 353.146, 442.114 352.010 C 449.765 350.604, 464.510 343.018, 471.160 337.066 C 477.559 331.339, 483.267 322.794, 487.573 312.500 L 490.500 305.500 490.500 263.500 C 490.500 221.939, 490.476 221.434, 488.160 215.149 C 479.798 192.459, 460.307 176.458, 437.364 173.447 C 432.938 172.866, 431.935 173.065, 430.114 174.886 C 427.544 177.456, 427.367 182.117, 429.758 184.281 C 430.725 185.156, 434.716 186.540, 438.625 187.355 C 456.061 190.990, 469.116 202.187, 475.231 218.751 C 477.207 224.103, 477.381 226.885, 477.763 259.054 C 478.011 279.872, 477.773 295.774, 477.167 299.054 C 475.521 307.954, 472.307 315.220, 467.256 321.460 C 460.960 329.238, 453.269 334.440, 443.500 337.528 C 435.678 340, 434.922 340.050, 409.500 339.778 L 383.500 339.500 383.244 258.072 C 383.011 184.047, 382.838 176.479, 381.339 174.822 C 378.894 172.121, 374.536 172.503, 372.073 175.635 M 392.073 175.635 C 390.933 177.084, 390 178.823, 390 179.500 C 390 180.177, 390.933 181.916, 392.073 183.365 C 394.051 185.880, 394.575 186, 403.618 186 C 412.406 186, 413.273 185.818, 415.608 183.483 C 418.308 180.783, 418.192 178.127, 415.227 174.750 C 413.960 173.308, 411.973 173, 403.918 173 C 394.551 173, 394.059 173.110, 392.073 175.635 M 579.789 174.750 C 578.952 175.713, 570.048 196.075, 560.003 220 C 549.958 243.925, 533.908 282.110, 524.336 304.855 C 513.211 331.290, 507.148 346.891, 507.531 348.099 C 509.057 352.906, 515.158 354.697, 518.270 351.250 C 519.139 350.287, 522.268 343.875, 525.223 337 L 530.596 324.500 556.764 324 C 585.702 323.447, 586.333 323.298, 586.333 317 C 586.333 310.776, 585.399 310.534, 559.966 310.182 C 547.335 310.008, 537 309.648, 537 309.384 C 537 309.023, 572.092 225.187, 582.786 200 L 584.272 196.500 586.238 201 C 588.828 206.929, 608.379 253.058, 630.940 306.471 C 640.923 330.106, 649.815 350.243, 650.700 351.221 C 652.334 353.027, 656.595 353.573, 658.600 352.235 C 659.205 351.831, 660.251 350.456, 660.923 349.179 C 662.404 346.368, 662.606 346.985, 652.218 322.495 C 647.787 312.048, 638.001 288.875, 630.472 271 C 622.943 253.125, 614.884 234, 612.563 228.500 C 610.241 223, 604.371 209.050, 599.517 197.500 C 594.663 185.950, 590.016 175.713, 589.191 174.750 C 588.344 173.763, 586.300 173, 584.500 173 C 582.708 173, 580.643 173.767, 579.789 174.750 M 678.655 174.829 C 676.458 177.256, 676.550 182.283, 678.829 184.345 C 680.485 185.844, 685.964 186, 736.829 186 C 791.667 186, 793.047 185.953, 795 184 C 796.100 182.900, 797 181.295, 797 180.434 C 797 178.509, 795.088 174.759, 793.600 173.765 C 792.995 173.361, 767.257 173.024, 736.405 173.015 C 683.320 173.001, 680.221 173.098, 678.655 174.829 M 884.249 174.250 C 882.563 176.367, 812 344.852, 812 346.761 C 812 350.244, 814.903 353, 818.571 353 C 822.813 353, 823.994 351.263, 830.608 335.291 L 835.284 324 860.507 324 C 884.511 324, 885.858 323.900, 888.365 321.927 C 891.618 319.369, 891.857 315.087, 888.897 312.405 C 886.984 310.671, 884.770 310.473, 864.302 310.196 L 841.810 309.892 842.397 307.556 C 842.719 306.271, 846.959 295.833, 851.820 284.360 C 856.680 272.887, 863.393 256.975, 866.738 249 C 884.726 206.117, 888.262 198, 888.959 198 C 889.380 198, 891.557 202.387, 893.797 207.750 C 896.038 213.113, 901.974 227.175, 906.988 239 C 912.002 250.825, 921.211 272.650, 927.452 287.500 C 949.018 338.816, 954.170 350.505, 955.773 351.750 C 959.866 354.930, 966 351.931, 966 346.750 C 966 345.324, 962.132 335.009, 957.403 323.828 C 952.675 312.648, 944.623 293.600, 939.510 281.500 C 934.397 269.400, 925.932 249.375, 920.699 237 C 915.466 224.625, 907.622 206.038, 903.269 195.696 C 898.915 185.354, 894.603 176.017, 893.686 174.946 C 891.781 172.721, 885.817 172.281, 884.249 174.250 M 734.310 194.081 C 730.798 195.380, 730 198.231, 730 209.480 C 730 219.413, 730.157 220.248, 732.455 222.545 C 735.355 225.446, 737.965 225.659, 740.954 223.238 C 742.952 221.620, 743.132 220.560, 743.148 210.285 C 743.157 204.130, 742.884 198.211, 742.542 197.131 C 741.767 194.690, 737.218 193.005, 734.310 194.081 M 734.315 236.075 C 733.114 236.522, 731.640 237.804, 731.040 238.925 C 730.282 240.342, 730.034 257.562, 730.225 295.562 C 730.491 348.288, 730.567 350.211, 732.441 351.581 C 735.134 353.549, 739.369 353.354, 741.345 351.171 C 742.843 349.516, 743 344.116, 743 294.326 C 743 243.169, 742.877 239.205, 741.250 237.807 C 738.719 235.634, 736.795 235.153, 734.315 236.075 M 343.749 300.982 C 342.343 302.089, 340.944 304.483, 340.585 306.401 C 340.230 308.291, 338.609 312.461, 336.983 315.669 C 335.356 318.876, 334.020 322.668, 334.013 324.095 C 333.986 329.541, 341.038 331.962, 345.099 327.901 C 348.262 324.738, 352.986 313.911, 353.651 308.301 C 354.191 303.736, 354.016 303.157, 351.485 301.167 C 348.086 298.494, 346.948 298.466, 343.749 300.982 M 598.315 311.007 C 593.687 312.872, 592.801 317.891, 596.455 321.545 C 598.619 323.710, 599.785 324, 606.320 324 C 612.303 324, 614.238 323.601, 616.365 321.927 C 618.986 319.866, 619.843 315.873, 618.214 313.313 C 616.311 310.319, 603.662 308.853, 598.315 311.007 M 903.028 311.062 C 899.955 312.352, 899.035 313.754, 899.015 317.177 C 898.989 321.820, 903.036 324, 911.680 324 C 918.215 324, 919.381 323.710, 921.545 321.545 C 924.489 318.602, 924.656 316.032, 922.109 312.886 C 920.482 310.877, 919.188 310.513, 912.859 310.287 C 908.811 310.142, 904.388 310.491, 903.028 311.062 M 200.293 328.544 C 198.757 330.493, 195.141 333.665, 192.257 335.593 C 186.267 339.597, 184.911 342.689, 187.448 346.561 C 190.636 351.426, 194.046 351.069, 202.089 345.025 C 208.567 340.158, 213.292 333.534, 212.395 330.580 C 210.417 324.066, 204.593 323.087, 200.293 328.544 M 102.635 342.073 C 99.468 344.563, 99.209 348.209, 102 351 C 103.929 352.929, 105.333 353, 141.345 353 C 176.254 353, 178.798 352.881, 180.345 351.171 C 182.772 348.490, 182.474 343.446, 179.777 341.557 C 177.865 340.217, 172.506 340, 141.412 340 C 106.362 340, 105.190 340.063, 102.635 342.073 M 112 372.688 C 108.343 374.084, 107 376.339, 107 381.082 C 107 387.632, 109.942 390, 118.078 390 C 122.947 390, 124.138 390.360, 125.443 392.223 C 126.299 393.445, 127 395.695, 127 397.223 C 127 398.750, 127.450 400, 128 400 C 128.550 400, 129 398.285, 129 396.189 C 129 389.652, 126.531 388.098, 114.033 386.763 C 112.552 386.605, 110.954 385.401, 110.033 383.750 C 108.656 381.279, 108.656 380.721, 110.033 378.250 C 111.443 375.719, 112.162 375.460, 119.033 375 C 123.140 374.725, 126.500 374.050, 126.500 373.500 C 126.500 372.420, 114.468 371.747, 112 372.688 M 156.737 375.100 C 154.018 378.665, 153.256 381, 154.812 381 C 156.265 381, 160.138 374.953, 159.802 373.209 C 159.551 371.909, 158.834 372.351, 156.737 375.100 M 169.639 372.694 C 169.288 373.046, 169 380.683, 169 389.667 L 169 406 177.100 406 C 184.978 406, 185.293 405.907, 188.600 402.600 C 191.971 399.229, 192 399.123, 192 390.050 C 192 379.183, 190.539 375.541, 185.302 373.353 C 180.183 371.214, 178.738 373.220, 183.662 375.630 C 188.521 378.007, 189.967 380.974, 189.985 388.601 C 190.013 400.190, 186.813 404, 177.050 404 L 172 404 172 388.559 C 172 374.512, 171.459 370.875, 169.639 372.694 M 173.222 373.166 C 173.739 374.716, 176.881 374.976, 177.250 373.500 C 177.387 372.950, 176.437 372.350, 175.139 372.166 C 173.520 371.937, 172.917 372.251, 173.222 373.166 M 201 389 C 201 409.774, 202.814 412.427, 203.222 392.250 L 203.500 378.500 207.862 385.250 C 211.960 391.593, 214 393.464, 214 390.881 C 214 389.267, 202.907 372, 201.870 372 C 201.392 372, 201 379.650, 201 389 M 221.683 372.650 C 221.308 373.026, 221 379.066, 221 386.073 C 221 398.320, 220.923 398.793, 219 398.290 C 216.465 397.627, 216.485 398.431, 219.110 402.679 C 222.775 408.608, 223.478 406.623, 223.776 389.494 C 224.030 374.968, 223.514 370.819, 221.683 372.650 M 232.698 372.635 C 232.314 373.019, 232 380.683, 232 389.667 L 232 406 243.500 406 C 250.500 406, 255 405.609, 255 405 C 255 404.400, 251 404, 245 404 L 235 404 235 397.136 L 235 390.272 238.250 390.386 C 240.037 390.449, 241.603 390.050, 241.729 389.500 C 241.856 388.950, 240.393 388.500, 238.479 388.500 L 234.999 388.500 234.999 381.786 L 235 375.072 244.750 374.786 C 250.393 374.621, 254.500 374.079, 254.500 373.500 C 254.500 372.360, 233.795 371.538, 232.698 372.635 M 282.804 374.199 C 279.517 379.266, 278.855 381.001, 280.215 380.988 C 282.080 380.970, 286.381 373.981, 285.233 372.833 C 284.652 372.252, 283.732 372.769, 282.804 374.199 M 317.605 373.588 C 316.612 376.175, 316.931 394.211, 318.040 398.205 C 319.496 403.448, 323.140 406, 329.169 406 C 333.306 406, 334.529 405.528, 337.034 402.966 C 340.154 399.773, 341.435 394.564, 338.500 397 C 337.675 397.685, 337 398.999, 337 399.922 C 337 401.574, 332.079 404, 328.726 404 C 325.474 404, 322.077 401.660, 321.050 398.713 C 320.472 397.057, 320 390.620, 320 384.410 C 320 373.963, 319.071 369.766, 317.605 373.588 M 338.683 372.650 C 338.308 373.026, 338 378.246, 338 384.250 C 338 392.538, 338.301 395.067, 339.250 394.752 C 340.117 394.465, 340.588 391.170, 340.787 384.006 C 341.052 374.467, 340.398 370.936, 338.683 372.650 M 349.690 372.643 C 349.311 373.023, 349 380.721, 349 389.750 C 349 402.438, 349.284 406.073, 350.250 405.752 C 351.129 405.461, 351.648 401.476, 352 392.322 L 352.500 379.307 356.485 385.653 C 358.677 389.144, 361.039 392, 361.735 392 C 363.615 392, 363.445 391.596, 357.835 382.695 C 351.844 373.190, 350.635 371.698, 349.690 372.643 M 369.639 372.694 C 369.288 373.046, 369 379.066, 369 386.073 C 369 398.620, 368.967 398.804, 366.848 398.250 L 364.696 397.687 367.032 401.844 C 371.305 409.446, 372 407.728, 372 389.559 C 372 374.611, 371.475 370.859, 369.639 372.694 M 380.627 374.261 C 379.338 379.072, 380.281 385.563, 382.105 384.435 C 383.266 383.718, 383.274 373.287, 382.114 372.570 C 381.626 372.269, 380.957 373.030, 380.627 374.261 M 391.987 373.050 C 391.957 376.528, 397.403 392, 398.658 392 C 400.357 392, 400.488 392.782, 397.063 382.523 C 394.220 374.008, 392.015 369.892, 391.987 373.050 M 412.635 372.802 C 412.185 373.518, 409.897 379.818, 407.550 386.802 C 404.176 396.844, 402.933 399.437, 401.610 399.199 C 400.251 398.954, 400.061 399.425, 400.597 401.699 C 401.431 405.232, 402.717 406.719, 403.841 405.450 C 405.260 403.849, 414.154 375.033, 413.792 373.210 C 413.532 371.900, 413.262 371.804, 412.635 372.802 M 423 389 L 423 406 434.559 406 C 442.010 406, 445.898 405.645, 445.500 405 C 445.159 404.448, 440.663 404, 435.460 404 C 424.765 404, 424.549 403.809, 425.184 394.920 L 425.500 390.500 429.250 390.827 C 432.078 391.073, 433 390.780, 433 389.637 C 433 388.607, 431.798 388.021, 429.250 387.810 L 425.500 387.500 425.500 381.500 L 425.500 375.500 433.500 375.248 C 442.913 374.952, 446.308 374.307, 445.482 372.971 C 445.152 372.437, 439.959 372, 433.941 372 L 423 372 423 389 M 454.667 372.667 C 454.300 373.033, 454 380.683, 454 389.667 C 454 403.309, 454.240 406, 455.458 406 C 456.585 406, 456.982 404.239, 457.208 398.250 L 457.500 390.500 462.005 390.205 L 466.510 389.910 470.488 397.540 C 472.676 401.736, 474.841 405.402, 475.299 405.685 C 477.571 407.089, 476.834 404.329, 472.874 396.594 L 468.517 388.085 463.008 387.793 L 457.500 387.500 457.202 381.250 L 456.905 375 463.761 375 C 472.214 375, 474.117 376.206, 474.399 381.740 C 474.565 384.987, 474.224 385.970, 472.805 386.341 C 470.692 386.893, 470.359 389, 472.385 389 C 473.147 389, 474.497 387.891, 475.385 386.535 C 478.575 381.667, 476.702 374.789, 471.713 373.050 C 468.395 371.893, 455.725 371.609, 454.667 372.667 M 490.315 372.986 C 485.430 375.002, 484.351 383.442, 488.455 387.545 C 490.514 389.605, 491.873 390, 496.898 390 C 501.953 390, 503.129 390.347, 504.443 392.223 C 505.299 393.445, 506 395.695, 506 397.223 C 506 400.160, 507.678 401.003, 508.623 398.541 C 509.339 396.675, 507.323 390.513, 505.503 389.003 C 504.736 388.366, 501.052 387.543, 497.316 387.173 C 491.194 386.566, 490.393 386.229, 489.207 383.750 C 488.120 381.479, 488.119 380.521, 489.204 378.250 C 490.425 375.691, 491.038 375.465, 498.008 375 C 502.129 374.725, 505.500 374.050, 505.500 373.500 C 505.500 372.216, 493.192 371.799, 490.315 372.986 M 517.473 373.210 C 516.552 375.611, 517.380 384.528, 518.500 384.263 C 519.861 383.941, 520.369 373.969, 519.090 372.690 C 518.391 371.991, 517.877 372.156, 517.473 373.210 M 528.516 372.974 C 528.163 373.546, 528.496 374.253, 529.258 374.545 C 531.695 375.481, 550.500 374.555, 550.500 373.500 C 550.500 372.119, 529.357 371.613, 528.516 372.974 M 559.605 372.830 C 559.323 373.286, 561.209 376.773, 563.796 380.580 C 568.354 387.285, 568.516 387.777, 569 396.421 C 569.329 402.293, 569.927 405.483, 570.750 405.754 C 571.689 406.064, 572 403.897, 572 397.051 L 572 387.936 566.417 379.968 C 563.346 375.586, 560.673 372, 560.476 372 C 560.279 372, 559.887 372.373, 559.605 372.830 M 577.602 375.635 C 576.171 377.741, 575 379.810, 575 380.232 C 575 382.016, 577.082 380.759, 579.603 377.454 C 581.494 374.974, 581.992 373.592, 581.256 372.856 C 580.521 372.121, 579.422 372.956, 577.602 375.635 M 613.466 373.229 C 613.180 373.974, 613.070 381.540, 613.223 390.042 L 613.500 405.500 620.423 405.800 C 633.337 406.359, 636 403.447, 636 388.772 C 636 381.768, 635.594 378.865, 634.369 377.117 C 632.319 374.189, 626.140 371.460, 624.737 372.863 C 624.070 373.530, 624.921 374.358, 627.291 375.348 C 633.023 377.743, 634.264 380.598, 633.853 390.455 C 633.394 401.494, 631.931 403.219, 622.521 403.818 L 616 404.233 616 388.676 C 616 379.310, 615.599 372.870, 614.993 372.496 C 614.439 372.153, 613.752 372.483, 613.466 373.229 M 617.565 372.895 C 616.901 373.970, 619.798 375.243, 621.090 374.444 C 621.591 374.135, 622 373.459, 622 372.941 C 622 371.743, 618.301 371.704, 617.565 372.895 M 658.646 372.763 C 657.874 374.013, 645 404.931, 645 405.536 C 645 407.008, 647.682 405.644, 648.513 403.750 C 649.329 401.890, 650.420 401.447, 654.815 401.195 C 661.271 400.826, 661.468 398.655, 655.089 398.188 C 652.284 397.983, 651 397.472, 651.321 396.688 C 656.377 384.374, 659.336 378.089, 659.910 378.444 C 660.301 378.686, 663.231 384.985, 666.420 392.442 C 671.527 404.381, 674 408.452, 674 404.918 C 674 403.120, 661.895 374.602, 660.518 373.154 C 659.767 372.365, 658.992 372.203, 658.646 372.763 M 683.694 372.639 C 682.025 374.308, 684.892 375, 693.477 375 C 703.166 375, 706.386 374.433, 705.435 372.895 C 704.811 371.885, 684.685 371.649, 683.694 372.639 M 778.794 373.549 C 773.810 376.254, 773.996 386.142, 779.079 388.735 C 780.411 389.415, 783.793 389.977, 786.595 389.985 C 792.606 390.003, 795 391.975, 795 396.912 C 795 399.082, 795.417 400.021, 796.250 399.730 C 798.296 399.014, 797.535 392.090, 795.148 389.704 C 793.550 388.106, 791.445 387.496, 786.421 387.176 C 780.116 386.774, 779.738 386.606, 778.491 383.641 C 777.537 381.372, 777.469 379.982, 778.241 378.514 C 779.867 375.420, 780.978 375.032, 788.250 375.015 C 793.577 375.003, 795 374.684, 795 373.500 C 795 371.445, 782.601 371.483, 778.794 373.549 M 813.270 373.483 C 808.010 375.769, 806.007 380.186, 806.007 389.500 C 806.007 398.509, 808.032 403.301, 812.566 405.025 C 815.893 406.290, 820 406.276, 820 405 C 820 404.450, 818.840 404, 817.423 404 C 815.908 404, 813.641 402.795, 811.923 401.077 C 809.143 398.297, 809 397.731, 809 389.500 C 809 381.269, 809.143 380.703, 811.923 377.923 C 815.758 374.088, 821.576 373.872, 825.694 377.412 C 828.363 379.705, 828.509 380.280, 828.692 389.142 C 828.969 402.649, 831.956 402.052, 831.986 388.484 C 832.003 381.153, 829.711 376.387, 824.938 373.827 C 820.903 371.663, 817.674 371.568, 813.270 373.483 M 846.449 373.551 C 841.562 375.963, 840 379.666, 840 388.839 C 840 396.625, 841.120 402, 842.741 402 C 843.176 402, 843.363 397.078, 843.157 391.063 C 842.793 380.426, 842.853 380.056, 845.346 377.563 C 848.605 374.304, 854.863 374.054, 859.025 377.018 C 862.107 379.212, 863.571 378.501, 861.580 375.778 C 858.854 372.051, 851.641 370.989, 846.449 373.551 M 872 381.441 C 872 386.698, 872.408 391, 872.906 391 C 874.157 391, 874.249 373.272, 873.002 372.501 C 872.359 372.104, 872 375.312, 872 381.441 M 883 389 L 883 406 894 406 C 900.667 406, 905 405.606, 905 405 C 905 404.400, 901 404, 895 404 L 885 404 885 397.224 L 885 390.447 889 390.829 C 892.256 391.139, 893 390.892, 893 389.500 C 893 388.108, 892.256 387.861, 889 388.171 L 885 388.553 885 381.776 L 885 375 893.918 375 C 903.192 375, 906.376 374.418, 905.435 372.895 C 905.131 372.403, 899.959 372, 893.941 372 L 883 372 883 389 M 914.247 373.250 C 914.693 374.595, 930.565 375.572, 934.791 374.515 C 939.985 373.215, 935.187 372, 924.858 372 C 916.484 372, 913.933 372.301, 914.247 373.250 M 945.496 373.007 C 945.153 373.561, 947.152 377.248, 949.937 381.200 L 955 388.387 955 397.194 C 955 404.355, 955.280 406, 956.500 406 C 957.732 406, 958 404.234, 958 396.107 C 958 388.236, 958.307 386.096, 959.500 385.638 C 960.325 385.322, 961 384.374, 961 383.531 C 961 381.558, 960.106 381.595, 957.823 383.661 C 956.813 384.574, 955.835 385.136, 955.649 384.911 C 955.462 384.685, 953.423 381.688, 951.118 378.250 C 946.672 371.623, 946.469 371.433, 945.496 373.007 M 139.117 375.250 C 139.770 376.488, 142.035 380.063, 144.152 383.195 C 147.880 388.712, 148 389.161, 148 397.528 C 148 403.993, 148.315 406.063, 149.250 405.753 C 150.081 405.478, 150.597 402.597, 150.791 397.164 L 151.081 388.989 145.874 380.994 C 143.010 376.597, 140.051 373, 139.298 373 C 138.194 373, 138.159 373.434, 139.117 375.250 M 264 373.679 C 264 374.144, 266.250 377.844, 269 381.901 L 274 389.277 274 397.638 C 274 402.546, 274.413 406, 275 406 C 275.595 406, 276 402.228, 276 396.685 L 276 387.370 271.250 380.502 C 266.924 374.247, 264 371.495, 264 373.679 M 727.046 374.915 C 725.898 377.060, 714 405.084, 714 405.643 C 714 405.839, 714.603 406, 715.339 406 C 716.076 406, 717.192 404.875, 717.818 403.500 C 718.817 401.309, 719.587 401, 724.062 401 C 730.320 401, 730.469 398.760, 724.261 398 L 720.178 397.500 724.292 387.750 C 726.555 382.387, 728.662 378, 728.974 378 C 729.286 378, 732.175 384.300, 735.394 392 C 739.190 401.082, 741.767 406, 742.730 406 C 743.546 406, 743.987 405.438, 743.709 404.750 C 743.431 404.063, 740.458 397.055, 737.102 389.178 C 733.746 381.301, 731 374.438, 731 373.928 C 731 372.239, 728.089 372.966, 727.046 374.915 M 963.188 375.960 C 961.985 377.587, 961 379.387, 961 379.960 C 961 381.894, 962.853 381.016, 964.932 378.096 C 968.652 372.872, 966.983 370.827, 963.188 375.960 M 538.386 377.437 C 537.650 379.354, 538.568 382, 539.969 382 C 541.297 382, 541.318 377.315, 539.993 376.496 C 539.439 376.153, 538.716 376.577, 538.386 377.437 M 693 379 C 693 382.161, 694.386 383.041, 695.362 380.500 C 696.045 378.720, 695.157 376, 693.893 376 C 693.402 376, 693 377.350, 693 379 M 924.695 376.639 C 923.683 377.651, 923.843 382, 924.893 382 C 926.258 382, 927.104 379.008, 926.196 377.386 C 925.752 376.593, 925.077 376.257, 924.695 376.639 M 151.200 383.200 C 149.567 384.833, 149.692 386, 151.500 386 C 152.325 386, 153 385.812, 153 385.582 C 153 385.352, 153.273 384.452, 153.607 383.582 C 154.323 381.715, 152.909 381.491, 151.200 383.200 M 276.583 383.643 C 276.237 384.547, 276.178 385.511, 276.452 385.786 C 277.091 386.424, 280 384.039, 280 382.878 C 280 381.325, 277.235 381.944, 276.583 383.643 M 572.070 383.869 C 571.520 384.896, 571.351 386.017, 571.693 386.360 C 572.567 387.234, 575 385.039, 575 383.378 C 575 381.389, 573.239 381.685, 572.070 383.869 M 538.639 384.694 C 538.288 385.046, 538 389.983, 538 395.667 C 538 404.185, 538.263 406, 539.500 406 C 540.738 406, 541 404.173, 541 395.559 C 541 386.006, 540.344 382.989, 538.639 384.694 M 693 395.083 C 693 403.504, 693.300 406.067, 694.250 405.753 C 695.085 405.476, 695.598 402.545, 695.795 396.920 C 696.110 387.920, 695.560 384, 693.981 384 C 693.399 384, 693 388.505, 693 395.083 M 924.695 384.639 C 924.313 385.021, 924 390.021, 924 395.750 C 924 403.638, 924.303 406.066, 925.250 405.752 C 926.100 405.471, 926.592 402.397, 926.788 396.148 C 927.059 387.478, 926.258 383.075, 924.695 384.639 M 517.166 388.139 C 517.350 389.437, 517.950 390.387, 518.500 390.250 C 519.976 389.881, 519.716 386.739, 518.166 386.222 C 517.251 385.917, 516.937 386.520, 517.166 388.139 M 380.888 393.691 C 380.227 404.418, 380.384 406, 382.107 406 C 383.340 406, 383.239 393.266, 382 392.500 C 381.450 392.160, 380.950 392.696, 380.888 393.691 M 517.683 392.650 C 517.308 393.026, 517 396.221, 517 399.750 C 517 404.437, 517.337 406.055, 518.250 405.754 C 519.009 405.504, 519.620 403.057, 519.804 399.525 C 520.092 394.025, 519.200 391.133, 517.683 392.650 M 872 399 C 872 403, 872.429 406, 873 406 C 873.571 406, 874 403, 874 399 C 874 395, 873.571 392, 873 392 C 872.429 392, 872 395, 872 399 M 398 394.378 C 398 395.135, 398.675 396.315, 399.500 397 C 400.768 398.053, 401 397.840, 401 395.622 C 401 393.958, 400.452 393, 399.500 393 C 398.675 393, 398 393.620, 398 394.378 M 662 399.500 C 662 400.333, 662.889 401, 664 401 C 665.111 401, 666 400.333, 666 399.500 C 666 398.667, 665.111 398, 664 398 C 662.889 398, 662 398.667, 662 399.500 M 731.667 398.667 C 730.399 399.934, 731.008 401, 733 401 C 734.111 401, 735 400.333, 735 399.500 C 735 397.978, 732.885 397.449, 731.667 398.667 M 858.139 402.033 C 856.841 403.115, 854.703 404, 853.389 404 C 852.075 404, 851 404.450, 851 405 C 851 406.815, 857.664 406.052, 860.365 403.927 C 861.814 402.788, 863 401.438, 863 400.927 C 863 399.402, 860.658 399.935, 858.139 402.033 M 124.569 402.924 C 123.634 403.957, 123.289 405.061, 123.801 405.377 C 124.314 405.694, 125.497 405.108, 126.431 404.076 C 127.366 403.043, 127.711 401.939, 127.199 401.623 C 126.686 401.306, 125.503 401.892, 124.569 402.924 M 503.772 402.657 C 502.479 403.950, 500.414 404.254, 494.065 404.086 C 488.676 403.944, 486 404.243, 486 404.987 C 486 406.604, 503.463 406.117, 505.738 404.436 C 506.965 403.530, 507.184 402.813, 506.457 402.074 C 505.724 401.330, 504.926 401.503, 503.772 402.657 M 793.200 402.200 C 792.540 402.860, 792 404.001, 792 404.735 C 792 405.760, 792.464 405.822, 794 405 C 795.100 404.411, 796 403.270, 796 402.465 C 796 400.689, 794.823 400.577, 793.200 402.200 M 824 403.032 C 821.715 404.790, 821.672 404.956, 823.500 404.962 C 826.391 404.972, 828.709 403.308, 827.492 402.096 C 826.838 401.445, 825.647 401.764, 824 403.032 M 107 405 C 107 405.578, 110.167 406, 114.500 406 C 118.833 406, 122 405.578, 122 405 C 122 404.422, 118.833 404, 114.500 404 C 110.167 404, 107 404.422, 107 405 M 775 405 C 775 405.583, 778.333 406, 783 406 C 787.667 406, 791 405.583, 791 405 C 791 404.417, 787.667 404, 783 404 C 778.333 404, 775 404.417, 775 405" stroke="none" fill="#052a78" fill-rule="evenodd"/></svg>